<?xml version="1.0" standalone="no"?>
<!DOCTYPE svg PUBLIC "-//W3C//DTD SVG 20010904//EN"
 "http://www.w3.org/TR/2001/REC-SVG-20010904/DTD/svg10.dtd">
<svg version="1.0" xmlns="http://www.w3.org/2000/svg"
 width="274.000000pt" height="274.000000pt" viewBox="0 0 274.000000 274.000000"
 preserveAspectRatio="xMidYMid meet">
<metadata>
Created by potrace 1.14, written by Peter Selinger 2001-2017
</metadata>
<g transform="translate(0.000000,274.000000) scale(0.100000,-0.100000)"
fill="#000000" stroke="none">
<path d="M2480 2489 c0 -5 -4 -7 -10 -4 -6 3 -7 -1 -4 -9 9 -22 19 -20 21 4 1
11 0 20 -3 20 -2 0 -4 -5 -4 -11z"/>
<path d="M2592 2480 c-9 -15 -17 -18 -30 -12 -9 5 -23 7 -31 4 -7 -2 -18 2
-23 9 -8 11 -9 10 -4 -3 3 -10 0 -18 -6 -18 -7 0 -7 -5 2 -14 10 -13 8 -13
-14 -3 -14 7 -26 16 -26 20 0 5 -7 1 -16 -7 -9 -9 -26 -14 -40 -12 -23 4 -23
4 -8 -20 9 -13 21 -24 28 -24 6 0 3 -5 -7 -11 -15 -9 -16 -13 -5 -27 12 -16
11 -16 -6 -2 -18 14 -19 13 -13 -2 3 -10 1 -20 -5 -24 -6 -4 -8 -3 -5 3 4 6 0
13 -8 17 -8 3 -15 2 -15 -3 0 -12 -43 -8 -53 4 -5 6 -7 3 -4 -6 3 -9 1 -21 -5
-27 -8 -8 -8 -16 2 -27 7 -8 10 -16 6 -16 -3 -1 -10 -2 -15 -3 -19 -2 -25 -17
-11 -27 13 -9 13 -10 0 -8 -39 4 -48 -1 -45 -26 1 -14 0 -23 -3 -20 -3 2 -11
0 -18 -6 -8 -7 -14 -6 -20 2 -4 7 -3 9 2 6 5 -3 10 3 10 14 0 10 -4 19 -8 19
-8 0 -12 -22 -9 -46 1 -7 -6 -14 -14 -18 -9 -3 -13 -10 -10 -16 4 -6 -1 -7
-11 -3 -12 4 -15 3 -10 -5 4 -7 2 -12 -4 -12 -6 0 -9 -4 -5 -9 3 -5 1 -13 -5
-16 -8 -5 -7 -12 2 -23 10 -14 10 -15 -2 -5 -14 13 -24 47 -11 38 7 -4 11 9
11 40 0 21 -3 45 -5 45 -2 0 -9 -8 -16 -17 -8 -9 -9 -14 -3 -10 7 4 14 1 16
-6 7 -16 -2 -38 -12 -32 -11 7 -4 -53 9 -68 8 -10 7 -14 -4 -14 -8 0 -12 3
-10 7 3 4 -5 16 -18 26 -12 10 -16 12 -9 4 17 -20 15 -35 -3 -20 -9 7 -18 10
-22 6 -3 -3 -1 -6 7 -6 9 0 10 -3 1 -13 -6 -8 -8 -17 -4 -21 4 -4 0 -4 -10 0
-13 5 -16 2 -11 -12 4 -15 4 -16 -4 -5 -8 11 -12 9 -23 -10 -17 -30 -18 -42
-4 -52 6 -5 2 -6 -9 -3 -14 5 -17 2 -14 -11 4 -15 -1 -18 -26 -18 -17 0 -36 3
-43 8 -6 4 -15 2 -19 -4 -4 -7 -3 -9 3 -6 6 4 14 0 17 -9 4 -9 2 -13 -5 -8 -7
4 -9 -1 -5 -17 3 -13 3 -18 0 -11 -5 10 -9 10 -21 1 -12 -10 -16 -10 -24 2 -6
10 -9 11 -9 1 0 -7 -4 -11 -8 -8 -5 3 -9 -1 -9 -9 0 -18 13 -20 20 -2 4 7 6 6
6 -4 1 -10 -10 -19 -24 -23 -14 -4 -23 -11 -20 -16 3 -6 0 -10 -8 -10 -18 0
-30 -27 -16 -35 5 -4 8 -1 7 7 -2 8 4 12 15 10 9 -2 17 1 16 5 -3 20 3 29 21
30 11 1 18 -2 15 -8 -4 -5 -14 -9 -23 -9 -11 0 -13 -3 -6 -8 8 -5 7 -11 -4
-22 -9 -8 -19 -14 -22 -13 -3 0 -4 -3 -2 -8 1 -5 -9 -2 -23 7 -14 9 -25 12
-26 8 0 -5 -5 0 -10 11 l-9 20 3 -20 c1 -11 7 -20 14 -20 6 0 14 -3 17 -7 3
-5 3 -6 -1 -3 -3 3 -13 -1 -21 -8 -9 -6 -13 -7 -11 -2 3 6 -2 18 -12 27 -17
16 -18 16 -16 -2 1 -10 4 -17 7 -15 4 2 6 -13 5 -33 -1 -22 -6 -36 -13 -35 -6
2 -16 -6 -22 -17 -8 -15 -6 -21 7 -30 15 -8 13 -9 -10 -4 -23 5 -26 4 -20 -12
5 -14 2 -13 -16 5 -17 17 -25 20 -36 11 -8 -7 -19 -9 -24 -5 -7 3 -8 0 -5 -10
5 -11 10 -13 19 -5 8 7 12 5 12 -5 0 -7 -3 -14 -6 -13 -19 2 -24 -4 -11 -13
13 -9 13 -10 0 -6 -8 2 -14 9 -13 15 1 5 -4 16 -12 22 -11 9 -15 9 -15 1 0 -6
4 -11 8 -11 4 0 8 -9 9 -21 2 -17 -1 -18 -13 -9 -9 8 -14 9 -14 2 0 -6 6 -12
13 -15 9 -3 9 -8 -2 -21 -8 -9 -21 -14 -30 -11 -11 4 -10 0 4 -15 19 -21 19
-21 -9 -10 -23 9 -32 7 -47 -6 -11 -10 -19 -14 -19 -9 0 4 -6 2 -14 -5 -16
-13 -10 -44 6 -34 6 4 6 9 -2 14 -9 5 -9 9 -1 14 13 8 13 8 16 -21 1 -13 -2
-20 -8 -16 -6 4 -8 0 -4 -11 4 -9 3 -15 -2 -12 -5 3 -11 -1 -15 -9 -3 -8 -1
-17 4 -20 6 -4 10 -12 9 -18 0 -9 -2 -9 -5 0 -3 7 -13 9 -22 6 -15 -4 -15 -3
-2 6 8 6 11 11 7 11 -4 0 -3 9 3 20 9 16 8 18 -5 14 -8 -3 -12 -11 -8 -17 4
-7 0 -8 -12 -3 -15 5 -16 4 -5 -9 7 -8 9 -15 4 -15 -5 0 0 -7 11 -16 19 -14
19 -15 -5 -12 -19 2 -24 -1 -22 -14 1 -9 -2 -19 -8 -23 -5 -3 -7 0 -4 8 3 8 1
18 -5 22 -6 3 -14 -1 -18 -11 -5 -13 -10 -10 -24 17 -14 28 -17 30 -16 12 1
-13 5 -23 9 -23 4 0 8 -7 8 -15 0 -8 -5 -15 -11 -15 -5 0 -7 5 -3 12 4 6 3 8
-4 4 -5 -3 -12 -3 -15 1 -2 5 -2 2 -1 -4 2 -7 -2 -13 -9 -13 -8 0 -7 -4 3 -11
11 -7 12 -12 3 -15 -7 -3 -10 -11 -7 -18 5 -14 -22 -30 -36 -21 -5 3 -11 1
-14 -4 -4 -5 -19 -8 -34 -5 -22 3 -24 2 -10 -6 10 -6 18 -15 18 -21 0 -5 -11
-2 -24 7 -33 21 -31 21 -49 5 -9 -7 -15 -17 -12 -21 3 -5 0 -12 -7 -16 -7 -4
-10 -3 -5 1 4 5 0 16 -9 26 -15 17 -15 18 5 14 11 -2 21 1 21 6 0 5 -6 9 -12
8 -7 -1 -25 4 -40 11 -24 11 -26 16 -15 29 10 14 10 14 -4 4 -9 -7 -19 -10
-22 -6 -4 3 -7 3 -7 -1 0 -13 27 -35 35 -28 5 4 5 1 1 -5 -5 -9 -2 -11 11 -7
13 4 15 3 5 -4 -8 -5 -13 -13 -12 -18 1 -5 -3 -9 -10 -11 -7 -1 -7 0 0 4 6 3
-2 17 -19 34 l-30 28 22 16 c15 11 17 15 6 15 -8 0 -21 -6 -28 -12 -11 -10
-13 -10 -7 0 4 6 2 12 -5 12 -8 0 -9 3 0 13 6 8 7 18 3 22 -4 5 -2 5 5 1 7 -4
9 -14 6 -23 -4 -10 -2 -14 5 -9 16 10 10 44 -8 41 -8 -2 -19 -4 -23 -4 -5 -1
-6 -5 -3 -9 3 -5 -1 -9 -9 -9 -13 0 -13 2 0 17 13 14 12 17 -5 28 -11 7 -23
12 -27 12 -5 0 -1 -5 7 -10 12 -8 12 -10 1 -10 -21 0 -41 32 -30 47 7 8 3 11
-15 9 -14 -2 -23 1 -20 5 7 12 -10 11 -22 -1 -7 -7 -11 -6 -11 4 0 9 9 13 24
11 13 -1 26 2 30 8 3 6 1 7 -6 3 -14 -9 -75 50 -66 65 10 14 -36 -12 -52 -31
-11 -12 -11 -10 -2 12 7 15 15 25 19 23 4 -2 7 2 7 10 0 12 -3 12 -16 2 -9 -6
-20 -16 -24 -22 -5 -6 -7 -3 -4 6 3 9 0 22 -6 28 -13 13 -17 52 -5 45 5 -4 7
-13 3 -23 -5 -13 -4 -13 6 -4 10 10 8 18 -11 38 -13 14 -18 25 -12 25 7 0 12
4 12 9 0 4 -10 8 -22 7 -14 -1 -22 4 -20 12 1 8 -2 11 -7 8 -5 -4 -11 0 -14 6
-2 7 -4 1 -3 -13 0 -15 6 -25 12 -22 6 2 17 -3 24 -12 8 -10 9 -15 1 -15 -6 0
-11 5 -11 11 0 6 -7 8 -16 5 -11 -4 -18 1 -21 14 -3 11 -9 17 -15 14 -5 -3
-16 0 -24 7 -14 12 -14 14 2 26 14 10 15 16 6 25 -9 9 -15 9 -25 -1 -10 -10
-8 -11 8 -5 16 5 18 4 8 -6 -9 -10 -16 -9 -35 5 -12 9 -16 15 -8 13 8 -3 20 1
27 8 15 14 17 28 4 20 -12 -8 -33 19 -23 29 4 5 1 5 -5 1 -8 -4 -13 -1 -13 9
0 10 5 13 12 9 7 -4 8 -3 4 5 -9 14 -26 5 -26 -13 0 -8 -6 -19 -13 -25 -10 -8
-14 -7 -14 4 0 8 3 12 7 10 3 -2 7 6 7 18 2 14 -1 17 -6 9 -10 -17 -30 5 -26
30 2 11 -2 15 -12 11 -11 -4 -11 -8 -3 -13 8 -5 8 -10 2 -14 -5 -3 -15 1 -21
8 -8 10 -9 16 -1 21 14 8 13 25 -2 25 -6 0 -9 -3 -5 -6 3 -4 0 -13 -8 -20 -23
-24 -25 -15 -5 21 12 22 15 34 7 32 -6 -1 -11 4 -9 11 1 6 -3 12 -9 12 -6 0
-8 -7 -5 -16 4 -9 1 -14 -6 -12 -6 2 -12 12 -14 22 -4 25 -11 30 -18 11 -4
-11 -2 -14 6 -9 6 4 8 3 5 -4 -12 -18 -48 -1 -68 32 -22 35 -24 50 -7 40 7 -4
8 -3 4 4 -4 7 -2 12 5 12 7 0 10 3 7 6 -4 3 -16 0 -28 -6 -12 -7 -20 -8 -16
-2 3 5 -1 13 -10 16 -14 5 -14 9 -3 22 17 21 21 46 6 37 -19 -12 -38 -12 -64
-2 -15 5 -22 5 -18 0 3 -5 1 -13 -5 -16 -6 -4 -9 -1 -8 7 2 7 -2 12 -8 11 -7
-1 -10 6 -7 17 3 12 0 20 -7 20 -7 0 -10 6 -7 14 3 7 1 18 -5 24 -8 8 -5 9 9
6 28 -8 37 10 15 27 -16 13 -16 12 -2 -5 13 -17 13 -18 -5 -14 -11 2 -19 11
-19 21 1 9 -3 17 -8 17 -6 0 -8 -9 -5 -19 3 -14 1 -18 -10 -14 -8 3 -12 11 -9
18 2 7 -2 21 -10 32 -12 15 -13 15 -8 1 5 -13 1 -16 -15 -13 -12 2 -19 0 -16
-6 4 -5 11 -6 17 -3 7 5 8 2 3 -6 -5 -9 -4 -11 3 -6 7 4 12 2 12 -3 0 -15 -11
-13 -34 4 -10 8 -23 12 -27 9 -5 -3 -9 -497 -9 -1099 l0 -1095 1300 0 1300 0
-2 1242 c-2 823 -6 1242 -13 1241 -5 -2 -11 -7 -11 -13 -1 -5 -2 -12 -3 -15 0
-3 -10 -1 -21 5 -11 6 -17 16 -14 25 9 21 1 18 -14 -5z m-49 -41 c-6 -6 -15
-3 -24 8 -13 16 -12 17 4 4 15 -12 17 -11 18 5 0 12 2 14 6 6 3 -8 1 -18 -4
-23z m70 10 c5 -3 1 -9 -8 -12 -9 -4 -13 -3 -10 3 3 6 1 10 -5 10 -6 0 -8 5
-5 11 4 6 10 7 14 2 3 -4 10 -11 14 -14z m42 -9 c-3 -5 -12 -10 -18 -10 -7 0
-6 4 3 10 19 12 23 12 15 0z m-220 -12 c5 4 5 1 1 -6 -6 -10 -11 -10 -22 -1
-8 6 -14 14 -14 16 0 3 6 0 13 -6 8 -6 18 -7 22 -3z m-67 -103 c3 -3 2 -8 -3
-12 -4 -5 -10 -2 -13 6 -4 11 -6 11 -13 0 -7 -11 -9 -11 -9 -1 0 7 -5 10 -10
7 -8 -5 -7 -12 2 -23 12 -15 11 -16 -5 -3 -13 10 -14 17 -6 27 10 12 45 11 57
-1z m-102 -110 c-1 -8 -6 -18 -11 -22 -4 -4 -5 -2 -1 5 4 6 2 12 -4 12 -6 0
-8 5 -5 10 9 15 24 12 21 -5z m-2156 -55 c0 -5 -2 -10 -4 -10 -3 0 -8 5 -11
10 -3 6 -1 10 4 10 6 0 11 -4 11 -10z m2105 0 c-3 -5 -12 -10 -18 -10 -7 0 -6
4 3 10 19 12 23 12 15 0z m-2041 -18 c3 -5 -1 -9 -9 -9 -8 0 -15 4 -15 9 0 4
4 8 9 8 6 0 12 -4 15 -8z m27 -89 c13 -16 12 -17 -3 -4 -10 7 -18 15 -18 17 0
8 8 3 21 -13z m77 -5 c7 -7 12 -8 12 -2 0 6 7 11 15 11 9 0 12 -4 7 -9 -12
-12 -54 -19 -47 -8 3 4 -1 11 -7 13 -7 3 -8 6 -2 6 5 1 15 -4 22 -11z m1812
-8 c0 -5 -4 -10 -10 -10 -5 0 -10 5 -10 10 0 6 5 10 10 10 6 0 10 -4 10 -10z
m-1730 -125 c19 -22 8 -25 -12 -3 -10 10 -14 18 -9 18 5 0 14 -7 21 -15z
m1617 -12 c-9 -8 -47 -11 -47 -4 0 5 11 9 25 9 14 0 24 -2 22 -5z m-1517 -28
c-7 -8 -17 -15 -23 -15 -6 0 -2 7 9 15 25 19 30 19 14 0z m37 -75 c3 -10 2
-11 -4 -4 -4 6 -15 14 -23 17 -11 5 -9 6 4 4 11 -1 21 -9 23 -17z m36 -26 c-8
-22 -18 -16 -21 12 -2 22 0 24 12 14 8 -6 12 -18 9 -26z m73 -42 c-6 -5 -36
23 -36 34 0 4 9 -1 20 -11 11 -10 18 -20 16 -23z m1144 -12 c0 -5 -2 -10 -4
-10 -3 0 -8 5 -11 10 -3 6 -1 10 4 10 6 0 11 -4 11 -10z m-1143 -55 c0 -8 -4
-12 -9 -9 -5 3 -6 10 -3 15 9 13 12 11 12 -6z m128 -65 c-3 -5 -12 -10 -18
-10 -7 0 -6 4 3 10 19 12 23 12 15 0z m915 6 c0 -3 -4 -8 -10 -11 -5 -3 -10
-1 -10 4 0 6 5 11 10 11 6 0 10 -2 10 -4z m-60 -51 c-6 -8 -9 -19 -6 -24 4 -5
1 -13 -5 -17 -8 -5 -9 -3 -4 6 6 10 4 12 -11 6 -15 -6 -14 -3 5 18 26 28 42
36 21 11z m-849 -38 c-10 -9 -11 -8 -5 6 3 10 9 15 12 12 3 -3 0 -11 -7 -18z
m89 -17 c0 -5 -5 -10 -11 -10 -5 0 -7 5 -4 10 3 6 8 10 11 10 2 0 4 -4 4 -10z
m690 0 c13 -9 13 -10 0 -11 -8 0 -23 -2 -33 -4 -15 -3 -16 -1 -6 11 13 16 19
17 39 4z m45 -10 c-3 -5 -12 -10 -18 -10 -7 0 -6 4 3 10 19 12 23 12 15 0z
m-660 -79 c-3 -5 -1 -12 5 -16 13 -8 13 -25 -1 -25 -5 0 -8 4 -5 9 4 5 1 11
-6 13 -10 4 -4 28 8 28 3 0 3 -4 -1 -9z m60 -51 c-3 -5 -12 -10 -18 -10 -7 0
-6 4 3 10 19 12 23 12 15 0z m365 -57 c0 -2 -6 -11 -14 -18 -12 -12 -14 -11
-12 9 0 14 6 22 14 19 6 -3 12 -7 12 -10z m-74 -79 c2 -13 0 -13 -14 -2 -13
11 -15 11 -9 -4 9 -25 0 -22 -14 3 -7 13 -7 19 -1 15 6 -3 14 -1 17 5 8 12 18
5 21 -17z m39 16 c3 -6 -1 -7 -9 -4 -18 7 -21 14 -7 14 6 0 13 -4 16 -10z
m-131 -22 c-3 -4 -9 -8 -15 -8 -5 0 -9 4 -9 8 0 5 7 9 15 9 8 0 12 -4 9 -9z
m26 -18 c0 -5 -2 -10 -4 -10 -3 0 -8 5 -11 10 -3 6 -1 10 4 10 6 0 11 -4 11
-10z"/>
<path d="M2434 2475 c-4 -8 -11 -12 -17 -8 -6 3 -7 1 -3 -5 10 -16 14 -15 26
8 6 11 8 20 5 20 -3 0 -8 -7 -11 -15z"/>
<path d="M2620 2481 c0 -6 4 -13 10 -16 6 -3 7 1 4 9 -7 18 -14 21 -14 7z"/>
<path d="M2379 2401 c11 -7 11 -9 0 -13 -8 -3 -11 -9 -7 -13 4 -4 14 -1 22 8
14 13 14 16 0 21 -23 9 -31 7 -15 -3z"/>
<path d="M2270 2340 c0 -5 5 -10 11 -10 5 0 7 5 4 10 -3 6 -8 10 -11 10 -2 0
-4 -4 -4 -10z"/>
<path d="M2269 2313 c-1 -5 -2 -15 -3 -23 0 -8 -6 -14 -13 -13 -7 2 -10 -4 -6
-13 5 -12 8 -12 20 6 8 11 20 18 26 14 7 -3 4 1 -5 9 -10 8 -15 17 -11 20 3 4
3 7 0 7 -4 0 -8 -3 -8 -7z"/>
<path d="M2147 2173 c3 -7 9 -10 14 -7 14 8 11 21 -5 21 -8 0 -12 -6 -9 -14z"/>
<path d="M206 2131 c-4 -6 0 -14 8 -17 9 -3 13 -10 10 -15 -3 -5 0 -9 5 -9 15
0 14 12 -2 35 -10 12 -16 15 -21 6z"/>
<path d="M2023 2058 c1 -7 -3 -12 -10 -13 -7 0 -17 -5 -24 -12 -17 -17 11 -11
39 8 19 14 20 18 8 22 -9 4 -15 1 -13 -5z"/>
<path d="M322 2031 c-11 -7 -10 -9 3 -14 9 -4 14 -3 10 2 -3 5 1 12 7 14 7 3
9 6 3 6 -5 0 -16 -3 -23 -8z"/>
<path d="M1971 1979 c-6 -17 -15 -28 -21 -24 -6 3 -7 0 -4 -10 6 -13 9 -12 23
7 9 13 16 25 16 28 0 3 4 11 8 18 5 6 4 12 -1 12 -6 0 -15 -14 -21 -31z"/>
<path d="M366 1945 c3 -8 10 -12 15 -9 5 3 9 0 9 -5 0 -6 5 -11 11 -11 14 0 2
18 -21 30 -16 8 -18 8 -14 -5z"/>
<path d="M1910 1956 c0 -2 8 -10 18 -17 15 -13 16 -12 3 4 -13 16 -21 21 -21
13z"/>
<path d="M1867 1902 c1 -8 3 -16 3 -18 0 -3 5 -2 10 1 6 3 10 11 10 16 0 6 -4
8 -9 5 -5 -4 -11 -3 -14 1 -2 5 -2 2 0 -5z"/>
<path d="M1676 1701 c8 -8 44 -8 44 1 0 4 -11 7 -25 6 -13 -1 -22 -4 -19 -7z"/>
<path d="M655 1680 c-4 -6 -11 -7 -17 -4 -7 4 -8 2 -4 -4 7 -12 36 -5 36 9 0
12 -7 11 -15 -1z"/>
<path d="M1663 1664 c-4 -12 -7 -13 -14 -3 -4 8 -11 11 -14 8 -3 -4 1 -12 9
-18 12 -10 17 -8 26 8 6 12 8 21 5 21 -3 0 -8 -7 -12 -16z"/>
<path d="M780 1561 c0 -7 -5 -9 -12 -5 -7 5 -8 3 -3 -5 5 -9 10 -10 18 -2 6 6
8 14 4 18 -4 3 -7 1 -7 -6z"/>
<path d="M1455 1520 c-3 -5 -1 -10 4 -10 6 0 11 5 11 10 0 6 -2 10 -4 10 -3 0
-8 -4 -11 -10z"/>
<path d="M850 1505 c0 -8 4 -15 10 -15 5 0 7 7 4 15 -4 8 -8 15 -10 15 -2 0
-4 -7 -4 -15z"/>
<path d="M894 1492 c3 -6 -2 -13 -11 -15 -16 -4 -16 -5 -1 -6 21 -1 32 15 17
25 -7 4 -9 3 -5 -4z"/>
<path d="M1343 1378 c1 -22 4 -25 16 -15 8 7 15 10 17 7 1 -3 6 -1 11 4 5 5 3
6 -4 2 -8 -4 -13 -2 -13 6 0 10 -2 10 -9 -1 -7 -11 -10 -10 -14 5 -3 12 -4 9
-4 -8z"/>
<path d="M1006 1382 c-3 -5 1 -9 9 -9 8 0 12 4 9 9 -3 4 -7 8 -9 8 -2 0 -6 -4
-9 -8z"/>
<path d="M1148 1253 c7 -3 16 -2 19 1 4 3 -2 6 -13 5 -11 0 -14 -3 -6 -6z"/>
</g>
</svg>
